<?xml version="1.0" encoding="utf-8"?>
<!-- Generator: Adobe Illustrator 24.1.1, SVG Export Plug-In . SVG Version: 6.00 Build 0)  -->
<svg version="1.1" id="Layer_1" xmlns="http://www.w3.org/2000/svg" xmlns:xlink="http://www.w3.org/1999/xlink" x="0px" y="0px"
	 viewBox="0 0 720 720" style="enable-background:new 0 0 720 720;" xml:space="preserve">
<style type="text/css">
	.st0{fill:#00AEEF;}
	.st1{fill:#FDFEFE;}
	.st2{fill:#FEFEFE;}
	.st3{fill:#EEF9FD;}
	.st4{fill:#FAFDFE;}
	.st5{fill:#75D3F6;}
	.st6{fill:#02AEEE;}
	.st7{fill:#04AEEE;}
	.st8{fill:#01AEEE;}
	.st9{fill:#FFFFFF;}
</style>
<circle class="st0" cx="360" cy="360" r="335.3"/>
<g>
	<path class="st1" d="M108.5,436.2c2.3,0,3.5,0,4.7,0c49.8,0,99.6,0,149.4-0.1c3.8,0,5.8,1.8,8,4.5c-2.3,0.9-4.3,0.6-6.2,0.4
		c-2.9-0.2-3.8,0.7-3.8,3.7c0.2,14.4,0.1,28.7,0.1,43.1c0,0.9,0,1.7,0,3.1c-3.2-1.9-5.2-3.7-5.1-7.6c0.3-7.4,0-14.7,0.1-22.1
		c0-2.4-0.4-4.5-2.2-6.1c-1.7-1.5-3.6-2.4-5.8-1.4c-2,0.9-2.2,2.8-2.2,4.8c0,1.1,0.7,2.5-0.7,2.9c-1.6,0.5-1.4-1.4-1.9-2.2
		c-2.8-4.6-8.8-7.2-13.9-5.7c-3.3,1-5.3,3.2-5.7,6.7c-0.3,2.7,0.2,5,3,6.1c0.2-0.3,0.5-0.5,0.5-0.6c-0.9-4.4,0.2-6.9,3.4-7.8
		c3.2-0.9,5.9,0.9,7.3,4.8c1.3,3.8,0.3,6.4-3.2,8c-7.3,3.3-14.9-1.2-15.6-9.1c-0.9-10,4.6-16.4,13.4-15.6c3.8,0.4,6.3,2.8,8.7,5.3
		c5.5-7.2,8.9-6.8,15,2.1c0-4,0-7.1,0-10.3c0-2.2-1.6-1.8-2.9-1.8c-17.7,0-35.4,0-53.2,0c-0.2,0-0.5,0-0.7,0c-1.2,0-2.2,0.2-2.2,1.8
		c0,1.4,0.9,1.5,1.9,1.7c9.1,2.3,15,8.9,16.1,18c0.4,3.5-0.3,6.8-2.9,9.3c-3.1,3.1-8.2,2.5-10.4-1c-1.4-2.3-1.1-4.5,0.4-6.6
		c1.6-2.2,3.8-2.1,6.1-1.5c1,0.3,1.9,1,2.9,1.6c0.1-6.4-5.8-12.6-11.8-12.9c-2.6-0.1-2.4,1.6-2.4,3.2c0,10.4,0,20.7,0,31.1
		c0,1.5,0.3,3-0.4,4.4c-1.9-0.4-2.1-2-2.6-3.3c-3.9-9.8-10.5-16.4-21.3-18.6c-4.1-0.8-5.5-5.2-7.8-8.1c-0.8-1,1-1.7,1.8-2.3
		c6.8-5.1,14.3-9.1,22.4-12c1.5-0.5,3.2-0.7,2.9-3.1c-0.4-2.8-2.5-1.6-3.8-1.6c-9.4-0.1-18.7,0-28.1-0.1c-2.9-0.1-3.8,0.8-3.8,3.8
		c0.1,13.9,0.1,27.7,0.1,41.6c0,1.3,0,2.7,0,4.7c-3.3-2.7-5.2-5-5-9.1c0.4-5.6,0-11.2,0.1-16.9c0.1-4-2.4-5.9-5.5-7.1
		c-3-1.2-5,0.8-6.6,2.9c-2.1,2.8-3.8,5.9-5.9,8.6c-4.2,5.5-9.5,5.3-13.4-0.4c-1.1-1.5-1.8-3.3-2.9-4.8c-1.4-2,0-3.1,1.4-3.9
		c1.8-1,1.5,1.1,2,1.8c2.6,4.6,4,4.9,7.4,0.9c2.9-3.4,6.7-6.6,4.3-12.1c-1.3-3.1-3.2-5.3-6.6-5.2
		C117.9,446.3,113.8,441.5,108.5,436.2z"/>
	<path class="st2" d="M352,447.5c-0.3-6-1.2-11.9-0.8-18.2c1.9,0.7,3.1,1.9,3.4,3.6c0.5,2.9,2.2,3.4,4.8,3.4c4.2,0,6.8,2.6,7.3,6.6
		c1.9,13.7,9,23.9,21.4,30.1c3.7,1.9,7.7,2,11.7,0.7c1.6-0.5,3-1.3,3.8-2.8c0.5-1,0.7-2.2,0-3.2c-0.7-1.1-1.6,0-2.3,0.2
		c-3.1,0.5-5.4-0.7-6.9-3.3c-1.3-2.3-1-4.6,0.7-6.6c1.8-2.1,3.9-2.3,6.4-1.4c2.8,1,4.7-0.2,4.6-3.1c-0.2-3.2-1.4-6.1-3.2-8.7
		c-1.1-1.6-1.9-1.1-2.7,0.3c-1,1.8-2,3.7-3.5,6.2c-1.4-3.9-3-6.8-5.8-8.8c-0.9-0.6-1.5-2.3-3-0.8c-1.5,1.5,0.1,2.1,0.9,2.9
		c0.9,1,1.8,2.1,2.6,3.2c1.5,2.1,2.2,4.6-0.3,6.3c-2,1.4-4.6,2.5-6.7-0.1c-1.3-1.6-1.9-0.8-2.8,0.3c-2.2,2.7-4.9,3.2-7.6,1.2
		c-3-2.2-2-5.1-0.5-7.7c0.7-1.3,1.8-2.4,2.9-3.4c2.2-2.1,1.8-3.9-1.2-4.7c-1.1-0.3-2.2-0.2-3.3-0.4c-1.1-0.2-2.3-0.2-3.2-0.7
		c-1.2-0.6-2-1.9-1.8-3c0.2-1.5,1.8-0.8,2.8-0.9c5.3-0.4,9.4,1.9,12.5,6.3c2.1-2.1,3.1-5.6,6.9-4.7c3,0.7,4.3,3.6,6.4,5.9
		c1.4-3.1,2.6-6,4-9.4c2,5.1,5.1,8.9,7.4,13.2c2.9,5.6,5.1,11.4-0.9,16.6c-0.9,0.8-0.3,1.6,0,2.4c1.5,4.9,2,9.6-2.2,13.5
		c-4.4,4.1-9.5,4.6-15,3c-6.4-1.9-11-6.3-14.7-11.6c-5.2-7.3-8.8-15.5-10-24.4c-0.6-4.1-2.5-4.6-5.9-4.4c-2.7,0.2-2.1,1.9-2.1,3.4
		c0,14,0,28,0,42c0,1.4,0,2.7,0,4.8c-3-2.3-5.7-3.8-5.5-8c0.4-8.2,0.3-16.5,0.5-24.7c0.2-5.5-2.5-9.5-6.4-13
		c-1.5-1.4-3.3-1.6-5.2-0.8c-3.1,1.3-3.3,2.7-0.7,4.9c1.3,1.1,2.6,2.3,3.7,3.7c2.1,2.9,1.9,7.3-0.3,9.3c-2.3,2.1-7.1,1.9-9.5-0.9
		c-1.9-2.3-2.8-2-4.5,0.1c-2.5,3-6.2,3.6-8.7,1.9c-2.9-2-3.8-6.1-2-9.7c1.3-2.6,3-5,5.6-6.4c1.9-1,1.4-2,0.5-3.2
		c-1.2-1.7-2.7-3-4.9-3.1c-4-0.2-8-0.2-12-0.3c-2.5,0-1.8,2-1.8,3.3c0,13.9,0,27.7,0,41.6c0,1.3,0.3,2.7-0.5,4.2
		c-2.8-2-4.7-3.9-4.6-7.8c0.3-12.6,0-25.2,0.2-37.9c0-2.8-0.7-4-3.6-3.5c-3.9,0.7-5.8-1.8-8.1-4.8c4,0,7.4,0,10.7,0
		c0.8-1.3-0.2-1.6-0.6-2.1c-3.6-3.9-4-6.6-1-11c5.3-7.5,12.6-10.9,21.7-9.4c9.4,1.5,16.8,6.6,23.4,13.2c0.7,0.7,1.2,1.5,1.1,3.1
		c-2.3-1.6-4.5-3.2-6.7-4.6c-5.3-3.4-10.8-6.3-17.2-6.7c-7.5-0.5-14,3.4-17.3,10.2c-2,4.1-0.1,7.1,4.4,7.1c2.1,0,4.3,0.2,6.4,0
		c6.8-0.6,12,1.7,15.1,8.7c2-3.3,4.1-5.9,7.1-7.5c3.2-1.8,6.1-1.7,8.7,1.3c2.8,3.2,5.3,6.6,7.5,10.3
		C352.7,449.1,352.4,448.3,352,447.5z"/>
	<path class="st1" d="M607.8,441.3c-2.9,0-5.3-0.2-7.6,0c-5.1,0.4-7.6,3.1-7.9,8.2c-0.5,7.1,1.6,13.9,2.7,20.7
		c1.5,8.9-1.3,15.8-8.1,20.2c-1.7,1.1-3.5,1.9-5.6,2c-1,0-2-0.4-2.4-1.5c-0.4-1.4,0.8-1.6,1.7-2c7-3,9.1-6.5,8.1-14
		c-0.4-3.2-1.2-6.4-2.2-9.5c-2.3-7.7-1.3-14.8,3.9-21.2c0.5-0.7,1-1.4,1.5-2.2c0-0.1,0-0.2-0.1-0.8c-5.5,0-11,0-16.6,0
		c-2.5,0-1.7,2-1.7,3.3c-0.1,14.5,0,29,0,43.5c0,1.1,0,2.2,0,3.5c-2.3-0.5-1.9-2.2-2-3.7c-0.6-8.7-3.3-16.7-8.5-23.6
		c-2.6-3.4-5.8-6.2-10.5-5.9c-0.3,1.2,0.6,1.7,1,2.5c1.6,2.7,2.5,5.6,0.6,8.5c-2,3-5.2,3.1-8.4,2.5c-3.4-0.6-5.6-2.6-6.4-6
		c-1-4.5-0.1-8.5,3.6-11.5c4.2-3.3,8.9-3.8,13.7-1.4c4.3,2.1,7.2,5.7,9.5,9.8c0.6,1,1.1,1.9,1.7,2.9c1.2-0.8,0.7-1.9,0.7-2.7
		c0.1-6.1,0-12.2,0.1-18.4c0-2.3-0.4-3.3-3-3.3c-18.6,0.1-37.2,0.1-55.8,0.1c-0.9,0-1.8,0-2.6,0.3c-1.3,0.5-2.7,1.3-2.9,2.7
		c-0.2,1.6,1.4,2.3,2.7,2.7c5.2,1.9,10.6,3.4,16,1.2c3.5-1.4,5.9-0.7,7.9,2.2c0.4,0.6,1,1.2,1.6,1.6c1.9,1.5,2,2.6,0.4,4.8
		c-7.2,9.5-7,20.4-5.3,31.5c0.1,0.6,0.3,1.2,0.5,2c-3.3,0.5-4.9-0.7-5.2-4c-1.2-9.8-2.7-19.6,1-29.2c0.8-2-0.3-2-1.7-2.1
		c-7-0.3-13.7-1.5-18.8-6.8c-0.5-0.5-1-0.7-1.7-0.5c-2.6,0.5-7.1,7.2-6.5,9.8c0.6,2.6,2.6,3,4.7,2.3c2.6-0.9,5.1-2,7.6-3.2
		c1.7-0.8,3.2-0.9,4.4,0.5c3.1,4,5.7,8.4,5.3,13.6c-0.8,9.9-11.8,15.2-20.9,10.2c-7.5-4.1-10.7-11.3-12.8-19
		c-1.3-4.6-1.1-9.4-1.2-14.2c0-0.8-0.4-2,0.9-2c1,0,1.7,0.8,1.8,2c0.1,2.6,0.2,5.3,0.6,7.8c1.1,6.7,4.2,12.2,9.7,16.3
		c4.6,3.4,11.4,3.5,16.1,0.1c1.8-1.3,3.1-3,2.3-5.4c-0.6-2.1-1.8-3.3-4.1-2.3c-0.8,0.4-1.6,0.6-2.5,0.9c-5.5,1.9-9.6,0.9-12.9-3
		c-3.6-4.4-4.3-10-1.5-14.6c1.3-2.1,2.9-3.9,4.8-6.5c-5.3,0-10,0-14.7,0c-4.9,0-4.9,0-8.4-4.8c1.5-0.1,2.8-0.2,4.1-0.2
		c40.4,0,80.9,0,121.3-0.1C603.3,436.1,605.4,437.9,607.8,441.3z"/>
	<path class="st3" d="M358.3,387.6c-81.2,0-162.5,0-243.7-0.1c-1.5,0-4.5,1.4-4.5-1.3c0-2.9,3-1.4,4.5-1.4
		c162.5-0.1,324.9-0.1,487.4,0c1.6,0,4.6-1.3,4.6,1.4c0,2.7-3,1.4-4.5,1.4C520.8,387.6,439.5,387.6,358.3,387.6z"/>
	<path class="st1" d="M406.6,436.2c3.6,0,6.6,0,9.7,0c10.2,0,20.5,0.2,30.7-0.1c4-0.1,6.7,1.2,8.7,4.5c-1,1.1-2.3,0.5-3.5,0.6
		c-6.2,0.1-6.2,0.1-6.2,6.4c0,13,0,26,0,39c0,1.2,0,2.4,0,4.3c-2.6-1.6-3.5-3.8-4.5-5.8c-2.9-5.5-6.2-10.6-11.8-13.7
		c-2-1.1-4.1-2.4-6.2-2.4c-5.9,0-7.8-4.6-10.6-8.2c-1.4-1.8,0.1-2.4,1.2-3.1c7.5-5,15.3-9.4,23.9-12.3c1.4-0.5,3.6-0.5,3-2.9
		c-0.5-2.2-2.5-1.2-3.8-1.2c-7.4-0.1-14.7-0.3-22.1,0.1C411.1,441.5,408.9,439.6,406.6,436.2z"/>
	<path class="st4" d="M427.4,487.1c-2.7,0.1-5.2-2.3-5.4-5.1c-0.1-2.8,2-5.2,4.7-5.1c3,0.2,4.8,1.9,5.2,4.8
		C432.3,484.4,430,487,427.4,487.1z"/>
	<path class="st5" d="M352,447.5c0.4,0.8,1.1,1.8,0,2.5c-0.3,0.2-0.8-0.4-0.8-1C351.5,448.5,351.7,448,352,447.5z"/>
	<path class="st6" d="M191.6,475.6c-4.8-6-10.3-10.6-17.5-14c5.1-3.9,10.1-6.8,15.6-9.1c1.3-0.5,1.9-0.4,1.9,1.1
		C191.6,460.9,191.6,468.2,191.6,475.6z"/>
	<path class="st7" d="M130.5,441.2c6.2,0,12.4,0,18.5,0c1.7,0,2.1,0.8,2.1,2.3c-0.1,4.6,0,9.1,0,14.4c-4.6-4.2-7.7-12.1-15.5-4.5
		c0-5.1-2-8.6-5.5-11.3C130.2,441.7,130.3,441.5,130.5,441.2z"/>
	<path class="st8" d="M441.1,477.1c-4.7-7-11-11.8-18.8-15.4c5.4-4.1,10.8-6.9,16.6-9.2c2.2-0.9,2.2,0.2,2.2,1.8
		C441,461.9,441.1,469.5,441.1,477.1z"/>
</g>
<g>
	<path class="st9" d="M504.4,311.2l0.1,0.7c1.2,7.6,4.3,17.6,17.2,16.5l0.8-0.1l-0.2-0.8c-0.9-3.5-12.7-13.5-16.8-16.4l-1.2-0.6
		L504.4,311.2z M595.4,240.7l0.3,2c1.2,7,4.1,13.1,8,16.6l0.9,0.8l0.3-1.4c0,0,0.1-0.5,0.1-0.5c1-7.2-5.4-13.7-8.2-16.2l-0.8-0.7
		L595.4,240.7z M608.8,252.9l-0.7,1.7c-2,5-2.9,16.3-2.2,21.6l0.6,3l0.5-0.6l0.5-0.6c4.1-5,4.2-11.7,3.6-16.4
		c-0.4-3.3-1.2-5.9-1.7-7l-0.3-0.9L608.8,252.9L608.8,252.9z M613.8,272.2l-1.1,1.4c-3.9,4.8-9.2,18.3-9.4,22.8l-0.1,1.4l1.1-0.7
		c9.6-6.3,9.9-18.2,9.5-23l-0.1-0.9L613.8,272.2L613.8,272.2z M612.4,293.5l-1.4,0.9c-6.2,3.9-15.8,15.8-17.7,20.9l-0.5,1.4l1.4-0.4
		c10-3.2,16.5-14.3,17.9-21.1l0.2-0.8L612.4,293.5L612.4,293.5z M591.7,250.9l0.5,1.8c1.4,4.9,6.2,13.5,10.2,16.9l1.1,0.9l0.1-1.5
		c0.4-6.8-3-12.4-10.3-17l-0.8-0.5L591.7,250.9z M595.9,266l-0.1,1.5c-0.2,5.1,3.7,16,6.6,20.2l0.8,1.1l0.4-1.3
		c0.5-1.4,0.8-2.7,0.8-4c0.5-8.1-5.6-14.7-7.5-16.5l-0.6-0.5L595.9,266L595.9,266z M595.8,280l-0.4,1.4c-0.4,1.3-0.6,3.2-0.7,5.5
		c-0.2,6.5,0.9,14.7,2.2,17.2l0.5,1l0.7-1c1.9-2.9,3-6,3.1-9.2c0.1-4.4-1.5-9.1-4.6-13.7l-0.4-0.6L595.8,280z M592.4,295l-0.8,1.1
		c-3,3.9-6.8,16.8-6.9,21.9c0,0,0.1,0.9,0.1,1l0.2,1.2c0,0,0.9-0.6,0.9-0.6c5.3-3.4,8.1-8.3,8.3-14.6c0.1-2.8-0.4-5.7-1.3-8.7
		l-0.2-0.7L592.4,295L592.4,295z M603.4,315l-1.5,0.2c-5.5,0.9-20.9,9.6-23.3,13.1l-0.6,0.9l1.1,0.2c12.7,2.2,19.5-6.5,23.5-13.2
		l0.4-0.6L603.4,315L603.4,315z M542.1,334.7c-0.4,0.2-9.6,5-15.5,12.7l-0.4,0.5l0.4,0.4c0.4,0.4,1.4,1.2,2,1.4l0.4,0.1l0.3-0.4
		c5.6-7,15.3-15.6,25.7-16.7c1.6,1.6,3,2.8,5.2,3.6c5.9,2,16,1,24.1-2.3l1.9-0.8l-2-0.5C565,327.5,550.4,330.6,542.1,334.7
		 M583.9,310.5l-1.2,0.6c-4.1,2.8-15.9,12.9-16.8,16.4l-0.2,0.8l0.8,0.1c12.9,1.1,16-8.9,17.2-16.5l0.1-0.7L583.9,310.5z
		 M258.8,233.4h16.1V248h-16.1V233.4z M260,264.7h13.5v71.5H260V264.7L260,264.7z M158,264.8h13.5v71.5h-13.2v-10.5H158
		c-5.4,9-14.5,12.7-24.5,12.7c-14.9,0-23.5-11.4-23.5-25.8v-47.8h13.5V307c0,12.4,2.8,21.5,15.8,21.5c5.6,0,13.1-2.8,15.9-10.2
		c2.6-6.7,2.7-15.1,2.7-16.8L158,264.8L158,264.8z M198.5,275.3h0.3c4.6-9,14.5-12.7,21.6-12.7c5,0,27,1.3,27,24.2v49.4h-13.5v-45
		c0-11.8-5-18.2-16.4-18.2c0,0-7.4-0.4-13.1,5.3c-2,2-5.7,5.1-5.7,19.1v38.9h-13.5v-71.5h13.2L198.5,275.3L198.5,275.3z
		 M330.2,287.7c-0.7-8.9-4.9-15.1-14.6-15.1c-12.9,0-17.8,11.2-17.8,27.9c0,16.7,5,27.9,17.8,27.9c8.9,0,14.4-5.8,15.1-16h13.4
		c-1.1,16-13,25.7-28.7,25.7c-22.8,0-31.8-16.1-31.8-37.1c0-20.8,10.5-38.2,33-38.2c15,0,26.3,9.5,27,24.9L330.2,287.7L330.2,287.7z
		 M364.4,303c-1,12.5,4.1,25.3,17.8,25.3c10.5,0,15.7-4.1,17.2-14.4h14.2C411.5,330,399,338,382.1,338c-22.8,0-31.8-16.1-31.8-37.1
		c0-20.8,10.5-38.2,33-38.2c21.2,0.4,31.2,13.9,31.2,33.5v6.6L364.4,303L364.4,303z M400.3,293.6c0.3-11.9-5.1-21.1-18.1-21.1
		c-11.2,0-17.8,9.4-17.8,21.1H400.3L400.3,293.6z M429.6,335.9v-61.7h-12.2v-9.4h12.2v-15.3c0.4-15.6,12.2-19.7,22.2-19.7
		c3.2,0,6.4,0.8,9.6,1.4v11.2c-2.3-0.1-4.5-0.4-6.8-0.4c-7.6,0-12,2-11.6,9.8v13h16.4v9.4h-16.4v61.7L429.6,335.9L429.6,335.9z"/>
	<path class="st9" d="M544,228.7c-26.3,0-47.6,21.4-47.6,47.6c0,26.3,21.4,47.6,47.6,47.6c26.3,0,47.6-21.4,47.6-47.6
		C591.7,250.1,570.3,228.7,544,228.7 M581.2,249.7c-2.5,1.6-5,3.1-7.7,4.4c-1.6-3.2-3.5-6.1-5.7-8.9c1.9-1.2,3.8-2.5,5.5-4
		C576.3,243.8,578.9,246.6,581.2,249.7 M561.2,233.9c3.8,1.5,7.4,3.6,10.7,6.1c-1.7,1.4-3.4,2.6-5.3,3.7c-2.3-2.7-5-5.1-7.8-7.2
		C559.6,235.7,560.4,234.8,561.2,233.9 M564.8,244.7c-2.6,1.4-5.2,2.5-8,3.4c-1.2-2.7-2.5-5.3-4-7.8c1.5-0.7,3-1.5,4.3-2.5
		C560,239.8,562.5,242.2,564.8,244.7 M559.2,233.2c-0.6,0.8-1.4,1.5-2.1,2.1c-2.5-1.7-5.2-3.2-8-4.4
		C552.6,231.3,556,232.1,559.2,233.2 M555.5,236.6c-1.1,0.8-2.4,1.5-3.7,2c-1.4-2.2-2.9-4.3-4.6-6.4
		C550.1,233.4,552.9,234.9,555.5,236.6 M545,232.6c1.8,2.1,3.4,4.4,4.9,6.7c-1.6,0.5-3.2,0.8-4.9,0.9V232.6L545,232.6z M545,242.2
		c2-0.1,4.1-0.5,6-1.1c1.5,2.4,2.8,5,3.9,7.6c-3.2,0.8-6.6,1.3-9.9,1.4L545,242.2L545,242.2z M543,232.7v7.5
		c-1.6-0.1-3.3-0.4-4.9-0.9C539.7,237,541.3,234.8,543,232.7 M536.3,238.7c-1.3-0.5-2.5-1.2-3.7-2c2.6-1.7,5.3-3.2,8.2-4.3
		C539.2,234.3,537.7,236.4,536.3,238.7 M539.1,230.9c-2.8,1.2-5.5,2.7-8,4.4c-0.8-0.7-1.5-1.4-2.1-2.2
		C532.2,232,535.6,231.3,539.1,230.9 M571.7,312.7c-6.3-3.5-6.5-8.3-6.1-10.1c0.3-1.8,1.6-1,2.4-1c4.2,0,8.5-1.2,13.9-6.7
		c6.1-6.2,8-20-1.4-29c-10.1-9.7-20.8-8-27.7,0.7c-1.4,1.8-4.9,3.1-7.9,3c-4.4-0.2-1.6,3.3-1.6,4c0,0.7-0.7,1.2-1.1,1.1
		c-1.5-0.4-0.9,1.8-0.9,2.5c0,0.7-0.6,1-1,1c-1.9,0-1.3,1.7-1.3,2.1c0.1,0.4-0.1,1.2-0.7,1.6c-0.6,0.3-1.3,1.8-1.3,2.9
		c0,2,1.9,3.4,5,5.7c3.1,2.3,3.5,4.5,3.5,6.1c0.1,1.6,0.2,4.1,0.9,5.8c0.8,2,0.7,5.7-3.6,5.9c-5.2,0.2-14.5,4.4-15.3,4.7
		c-2.9,1.1-6.8,1.4-9.9,0.7c-1.6-1.2-3.2-2.4-4.7-3.8c-0.6-2.1,0.4-4.4,1.5-5.9c1.7,1.7,4.3,1.6,5.8,1.7c1.5,0.1,8.6-1.1,9.6-1.4
		c1-0.3,1.5-0.2,2.1,0c2.7,1,6.5,1.3,8-3.9c1.5-5.2-2.1-3.8-2.5-3.5c-0.5,0.2-1.1,0.2-0.8-0.3c0.7-1.3-0.3-1.2-0.9-1.2
		c-1.5-0.1-3.4,1.4-4,2c-0.6,0.6-1.2,0.5-1.5,0.4c-1.9-1-7.7,0.4-9.5-2.7c0.2-0.8-1.5-13.5-2.3-15.7c-0.3-0.7-0.2-1.5,0.2-2.1
		c1.5-2.2,5.5,0.2,7.7,0.1c2.6-0.1,3-1.2,3.8-2.1c0.7-0.9,1.2-0.4,1.6-0.6c0.5-0.3,0-0.9,0.2-1.3c0.2-0.3,0.4-0.2,0.8-0.6
		c0.5-0.4-0.1-1.2,0.2-1.6c0.6-1,2.4-0.2,1.4-2.8c-0.6-1.4,0.2-2.9,1-3.9c1.3-1.6,6.2-8.6-2.5-15.7c-8.3-6.9-16.6-6.3-22-0.5
		c-5.4,5.8-2.7,14.4-2.1,16.6c0.6,2.3-1.1,4.3-2.9,5.2c-1.5,0.7-4.9,2.9-7.4,5.2c0.4-18.4,11.5-34.5,28.6-41.4
		c0.7,0.9,1.5,1.8,2.4,2.6c-1.9,1.4-6.1,5.1-6.1,5.1s0.6,0.1,1.1,0.2c0.4,0.1,1.1,0.3,1.1,0.3s3.7-3.1,5.4-4.3
		c1.3,1,2.8,1.9,4.3,2.5c-0.8,1.4-2.9,5.3-2.9,5.3s0.5,0.3,0.9,0.6c0.4,0.3,0.7,0.5,0.7,0.5s2.3-4.3,3.1-5.7c1.9,0.6,3.9,1,5.9,1.1
		v7.8c-1.1,0-4-0.2-5.2-0.3l-0.7-0.1l0.4,0.6c0.3,0.5,0.5,0.9,0.8,1.3l0.1,0.2l0.2,0c0.8,0.1,3.5,0.2,4.4,0.2v14.3h2V263
		c2.9-0.1,5.3-0.3,8.2-0.6l0.1,0l2.6-2.3l-1.4,0.1c-2.7,0.4-5.5,0.6-8.3,0.7L545,261v-9.1c3.6-0.1,7.2-0.6,10.7-1.5
		c1,2.4,2.8,8.1,2.8,8.1l1.9-0.6c0,0-1.8-5.7-2.8-8c3-0.9,5.8-2.1,8.6-3.6c2.2,2.7,4.1,5.6,5.6,8.7c-1.4,0.7-4,1.6-4,1.6
		c2.1,0.2,3.6,0.7,3.6,0.7s0.7-0.3,1.2-0.5c0.2,0.4,0.5,1.2,0.5,1.2l2.6,1.1l-0.3-0.7c0,0-0.8-2-1.1-2.5c2.7-1.4,5.4-2.9,7.9-4.6
		c4.9,7.4,7.4,16.1,7.4,25C589.7,291.1,582.6,304.3,571.7,312.7 M492.1,241.3l-0.7,0.7c-2.8,2.5-9.2,9-8.2,16.2c0,0,0.1,0.5,0.1,0.5
		l0.3,1.4l0.9-0.8c3.9-3.6,6.8-9.6,8-16.6l0.3-2L492.1,241.3L492.1,241.3z M479.1,253.7l-0.3,0.9c-0.4,1.2-1.2,3.7-1.7,7
		c-0.6,4.7-0.5,11.4,3.6,16.4c0,0,0.5,0.6,0.5,0.6l0.5,0.6l0.6-3c0.7-5.4-0.2-16.6-2.2-21.6l-0.7-1.7L479.1,253.7L479.1,253.7z
		 M474.4,273.1l-0.1,0.9c-0.3,4.8-0.1,16.7,9.5,23l1.1,0.7l0-1.4c-0.2-4.5-5.4-18-9.4-22.8l-1.1-1.4L474.4,273.1L474.4,273.1z
		 M476.1,294.3l0.2,0.8c1.4,6.8,7.9,17.9,17.9,21.1l1.4,0.4l-0.5-1.4c-1.9-5.1-11.5-17-17.7-20.9l-1.4-0.9L476.1,294.3L476.1,294.3z
		 M496.1,251.6l-0.8,0.5c-7.4,4.6-10.9,10.1-10.7,16.8l0.1,1.6l1.1-0.9c4-3.3,9.1-11.9,10.6-16.7l0.5-1.8L496.1,251.6L496.1,251.6z
		 M491.8,266.5l-0.6,0.5c-1.9,1.8-8.1,8.4-7.5,16.5c0.1,1.2,0.4,2.6,0.8,4l0.4,1.3l0.8-1.1c2.9-4.1,6.9-15.1,6.6-20.2l-0.1-1.5
		L491.8,266.5z M492.1,280.6l-0.4,0.6c-3.1,4.6-4.7,9.4-4.6,13.7c0.1,3.2,1.1,6.3,3.1,9.2l0.6,1l0.5-1c1.3-2.5,2.4-10.7,2.2-17.2
		c-0.1-2.3-0.3-4.2-0.7-5.5l-0.4-1.4L492.1,280.6L492.1,280.6z M495.7,295.6l-0.2,0.7c-0.9,3-1.4,5.9-1.3,8.7
		c0.2,6.3,3,11.2,8.3,14.6l0.9,0.6l0.2-1.2c0,0,0.1-1,0.1-1c-0.1-5.1-4-18-6.9-21.9l-0.8-1.1L495.7,295.6L495.7,295.6z M485.2,315.6
		l0.4,0.6c4,6.7,10.8,15.4,23.5,13.2l1.1-0.2l-0.6-0.9c-2.4-3.5-17.8-12.2-23.3-13.1l-1.5-0.2L485.2,315.6z M504,332.7l-2,0.5
		l1.9,0.8c8.1,3.3,18.2,4.3,24.1,2.3c2.2-0.7,3.6-2,5.2-3.6c10.4,1.1,20,9.7,25.7,16.7l0.3,0.4l0.4-0.1c0.6-0.2,1.6-1,2-1.4l0.4-0.4
		l-0.4-0.5c-5.9-7.7-15.1-12.5-15.5-12.7C537.9,330.6,523.2,327.5,504,332.7"/>
</g>
</svg>
